<?xml version="1.0" encoding="UTF-8" standalone="no"?>
<!-- Created with Inkscape (http://www.inkscape.org/) -->

<svg
   version="1.1"
   id="svg2"
   width="332.05823"
   height="203.87396"
   viewBox="0 0 332.05823 203.87396"
   sodipodi:docname="stunting-logo_flat_white.svg"
   inkscape:version="1.2.1 (9c6d41e410, 2022-07-14)"
   xmlns:inkscape="http://www.inkscape.org/namespaces/inkscape"
   xmlns:sodipodi="http://sodipodi.sourceforge.net/DTD/sodipodi-0.dtd"
   xmlns="http://www.w3.org/2000/svg"
   xmlns:svg="http://www.w3.org/2000/svg">
  <defs
     id="defs6" />
  <sodipodi:namedview
     id="namedview4"
     pagecolor="#ffffff"
     bordercolor="#111111"
     borderopacity="1"
     inkscape:showpageshadow="0"
     inkscape:pageopacity="0"
     inkscape:pagecheckerboard="1"
     inkscape:deskcolor="#d1d1d1"
     showgrid="false"
     showguides="true"
     inkscape:zoom="0.78223688"
     inkscape:cx="104.82758"
     inkscape:cy="112.49789"
     inkscape:window-width="1920"
     inkscape:window-height="991"
     inkscape:window-x="-9"
     inkscape:window-y="-9"
     inkscape:window-maximized="1"
     inkscape:current-layer="text1618">
    <sodipodi:guide
       position="76.666014,205.13372"
       orientation="0,-1"
       id="guide531"
       inkscape:locked="false" />
    <sodipodi:guide
       position="76.666014,139.87396"
       orientation="0,-1"
       id="guide533"
       inkscape:locked="false" />
    <sodipodi:guide
       position="45.412108,172.50482"
       orientation="1,0"
       id="guide535"
       inkscape:locked="false" />
    <sodipodi:guide
       position="109.98437,172.50482"
       orientation="1,0"
       id="guide537"
       inkscape:locked="false" />
    <sodipodi:guide
       position="76.666014,139.87396"
       orientation="1,0"
       id="guide539"
       inkscape:locked="false" />
  </sodipodi:namedview>
  <g
     inkscape:groupmode="layer"
     inkscape:label="Image"
     id="g8"
     transform="translate(144.35742,-128.57617)">
    <g
       id="g1684"
       style="fill:#f59f1d;fill-opacity:1">
      <path
         id="path541"
         style="fill:#f59f1d;fill-opacity:1;stroke-width:25.4504;stop-color:#000000"
         d="m -142.21289,185.58203 a 68.801457,47.661167 26.673794 0 0 -2.11523,0.0352 v 10.67187 c -0.004,1.00117 -0.0293,1.57533 -0.0293,2.77735 0,0.40353 0.025,0.65347 0.0293,1.02734 v 12.9043 a 68.573377,47.8199 0.574631 0 1 10.69335,0.12304 68.573377,47.8199 0.574631 0 1 53.271489,24.76368 c 1.565382,2.43066 3.221056,5.34455 4.367187,7.83789 2.920204,6.35269 3.531651,10.82977 5.740235,42 1.359648,19.18904 2.492196,37.23913 2.517578,40.11132 0.02539,2.87221 0.337529,4.93201 0.693359,4.57618 0.355829,-0.35583 1.817395,-18.00634 3.248047,-39.22266 1.723668,-25.5617 3.302803,-40.53636 4.679687,-44.38867 0.822616,-2.30157 2.426714,-5.49077 4.039063,-8.16602 A 47.8199,68.573377 89.425369 0 1 0.11914062,213.14258 47.8199,68.573377 89.425369 0 1 10.8125,213.01953 v -27.38086 a 47.661167,68.801457 63.326206 0 0 -2.1152344,-0.0351 47.661167,68.801457 63.326206 0 0 -0.7382812,0.0605 c -0.3535666,-0.064 -0.7543548,-0.0871 -1.2226563,-0.0762 -0.5104146,0.0119 -1.0950549,0.0567 -1.7617187,0.10742 -2.1911574,0.16689 -6.2620526,0.83559 -10.1679688,1.64258 -0.015748,0.003 -0.031132,0.007 -0.046875,0.01 a 47.661167,68.801457 63.326206 0 0 -0.3203125,0.0723 c -1.1926321,0.24984 -2.374082,0.50837 -3.4648437,0.77149 -4.7666474,1.14982 -12.3490124,3.74551 -16.8496094,5.76953 -4.500597,2.02401 -11.700633,6.09171 -16,9.03711 -4.299368,2.94535 -10.008411,7.66294 -12.6875,10.48437 -2.679091,2.82143 -6.613865,7.91517 -8.744141,11.32031 -3.873227,6.19124 -3.873013,6.19187 -7.029297,0.24219 -1.735955,-3.27228 -7.375721,-9.85569 -12.53125,-14.6289 -6.48232,-6.00166 -13.092348,-10.48303 -21.431642,-14.5293 -0.14839,-0.072 -0.32946,-0.14453 -0.48047,-0.2168 a 68.801457,47.661167 26.673794 0 0 -18.39843,-7.06445 c -0.60576,-0.16754 -1.3375,-0.40838 -1.84766,-0.52344 -0.3015,-0.068 -0.66013,-0.12171 -0.97266,-0.18945 a 68.801457,47.661167 26.673794 0 0 -6.70507,-1.3125 68.801457,47.661167 26.673794 0 0 -0.01,-0.002 c -0.008,-0.001 -0.0138,-0.003 -0.0215,-0.004 a 68.801457,47.661167 26.673794 0 0 -2.92968,-0.45703 c -1.31237,-0.19028 -2.50285,-0.3427 -3.36133,-0.41016 -1.02458,-0.0805 -1.80205,-0.11155 -2.4707,-0.0664 a 68.801457,47.661167 26.673794 0 0 -0.7168,-0.0586 z" />
      <circle
         style="fill:#f59f1d;fill-opacity:1;stroke-width:31.2353;stop-color:#000000"
         id="path527"
         cx="-67.024414"
         cy="160.57617"
         r="32" />
    </g>
    <g
       aria-label="UKRI GCF action  against stunting"
       id="text1618"
       style="font-size:33.654px;line-height:1.25;stroke-width:0.788765">
      <path
         d="m 55.844414,138.34739 v 15.54814 q 0,2.4904 -1.110582,4.50964 -1.076928,1.98559 -3.298091,3.16348 -2.221164,1.14423 -5.55291,1.14423 -4.778868,0 -7.269264,-2.42309 -2.490396,-2.45674 -2.490396,-6.46156 v -15.48084 h 5.081754 v 14.70679 q 0,2.99521 1.211544,4.20675 1.211544,1.17789 3.600978,1.17789 2.490396,0 3.600978,-1.3125 1.144236,-1.31251 1.144236,-4.10579 v -14.67314 z"
         style="font-weight:bold;-inkscape-font-specification:'sans-serif, Bold';fill:#f59f1d"
         id="path3908" />
      <path
         d="m 81.051276,162.37634 h -5.788487 l -6.293298,-10.12985 -2.153856,1.54808 v 8.58177 h -5.081754 v -24.02895 h 5.081754 v 11.00486 q 0.50481,-0.70674 1.00962,-1.41347 0.50481,-0.70674 1.00962,-1.41347 l 6.495222,-8.17792 h 5.653871 l -8.379845,10.63466 z"
         style="font-weight:bold;-inkscape-font-specification:'sans-serif, Bold';fill:#f59f1d"
         id="path3910" />
      <path
         d="m 91.080154,138.34739 q 4.913484,0 7.23561,1.78366 2.355776,1.78366 2.355776,5.41829 0,1.64905 -0.63942,2.89425 -0.605774,1.21154 -1.649048,2.08655 -1.00962,0.84134 -2.18751,1.37981 l 7.067338,10.46639 h -5.65387 l -5.72118,-9.22119 h -2.725974 v 9.22119 h -5.081754 v -24.02895 z m -0.370194,4.17309 h -1.548084 v 6.49523 h 1.649046 q 2.52405,0 3.600978,-0.84135 1.110582,-0.84135 1.110582,-2.4904 0,-1.71635 -1.17789,-2.42309 -1.17789,-0.74039 -3.634632,-0.74039 z"
         style="font-weight:bold;-inkscape-font-specification:'sans-serif, Bold';fill:#f59f1d"
         id="path3912" />
      <path
         d="m 115.27737,162.37634 h -10.93755 v -2.89424 l 2.9279,-1.34616 v -15.54815 l -2.9279,-1.34616 v -2.89424 h 10.93755 v 2.89424 l -2.9279,1.34616 v 15.54815 l 2.9279,1.34616 z"
         style="font-weight:bold;-inkscape-font-specification:'sans-serif, Bold';fill:#f59f1d"
         id="path3914" />
      <path
         d="m 137.25344,148.88109 h 9.52408 v 12.45198 q -1.88462,0.63942 -3.93752,1.00962 -2.05289,0.37019 -4.61059,0.37019 -5.38464,0 -8.27889,-3.16347 -2.89424,-3.16348 -2.89424,-9.2212 0,-3.76925 1.44712,-6.52887 1.44712,-2.75963 4.24041,-4.27406 2.82693,-1.51443 6.86541,-1.51443 1.91828,0 3.76925,0.40385 1.85097,0.40384 3.3654,1.07692 l -1.6827,4.07214 q -1.11058,-0.57212 -2.52405,-0.94231 -1.41347,-0.3702 -2.96155,-0.3702 -2.22117,0 -3.87021,1.00962 -1.61539,1.00962 -2.52405,2.86059 -0.87501,1.85097 -0.87501,4.30771 0,2.35578 0.63943,4.1731 0.63943,1.81731 2.01924,2.86059 1.37981,1.00962 3.60098,1.00962 1.07692,0 1.81731,-0.10096 0.74039,-0.10097 1.41347,-0.23558 v -5.01445 h -4.54329 z"
         style="font-weight:bold;-inkscape-font-specification:'sans-serif, Bold';fill:#f59f1d"
         id="path3916" />
      <path
         d="m 162.69589,142.25125 q -2.92789,0 -4.47598,2.18751 -1.54808,2.18751 -1.54808,5.99041 0,3.83656 1.41347,5.95676 1.44712,2.08655 4.61059,2.08655 1.44713,0 2.9279,-0.33654 1.48078,-0.33654 3.19713,-0.94231 v 4.27405 q -1.58174,0.63943 -3.12982,0.94232 -1.54808,0.30288 -3.46636,0.30288 -3.7356,0 -6.12503,-1.51443 -2.38943,-1.54808 -3.53367,-4.30771 -1.14424,-2.79328 -1.14424,-6.49522 0,-3.63463 1.31251,-6.42791 1.31251,-2.79329 3.8029,-4.37502 2.52405,-1.58174 6.15868,-1.58174 1.78367,0 3.56733,0.47115 1.81731,0.43751 3.46636,1.21155 l -1.64905,4.13944 q -1.34616,-0.63943 -2.72597,-1.11058 -1.34616,-0.47116 -2.65867,-0.47116 z"
         style="font-weight:bold;-inkscape-font-specification:'sans-serif, Bold';fill:#f59f1d"
         id="path3918" />
      <path
         d="m 178.95075,162.37634 h -5.01444 v -24.02895 h 13.76448 v 4.17309 h -8.75004 v 6.19234 h 8.14427 v 4.17309 h -8.14427 z"
         style="font-weight:bold;-inkscape-font-specification:'sans-serif, Bold';fill:#f59f1d"
         id="path3920" />
      <path
         d="m 42.954933,186.10241 q 3.298092,0 4.87983,1.44712 1.581738,1.44713 1.581738,4.6106 v 12.28371 h -2.153856 l -0.572118,-2.5577 h -0.134616 q -1.17789,1.48077 -2.490396,2.18751 -1.312506,0.70673 -3.567324,0.70673 -2.456742,0 -4.072134,-1.27885 -1.615392,-1.31251 -1.615392,-4.07213 0,-2.69232 2.120202,-4.13945 2.120202,-1.48077 6.528876,-1.61539 l 3.062514,-0.10096 v -1.07693 q 0,-2.25482 -0.975966,-3.12982 -0.975966,-0.875 -2.759628,-0.875 -1.413468,0 -2.69232,0.4375 -1.278852,0.40385 -2.389434,0.94231 l -0.908658,-2.22116 q 1.17789,-0.63943 2.793282,-1.07693 1.615392,-0.47116 3.3654,-0.47116 z m 3.53367,9.52408 -2.658666,0.10097 q -3.3654,0.13461 -4.677906,1.07692 -1.278852,0.94232 -1.278852,2.65867 0,1.51443 0.908658,2.22116 0.942312,0.70674 2.389434,0.70674 2.254818,0 3.769248,-1.2452 1.548084,-1.27885 1.548084,-3.90386 z"
         style="-inkscape-font-specification:'sans-serif, Normal';fill:#ffffff"
         id="path3922" />
      <path
         d="m 62.238702,204.78038 q -2.423088,0 -4.274058,-0.97596 -1.85097,-0.97597 -2.927898,-3.02886 -1.043274,-2.0529 -1.043274,-5.25003 0,-3.33174 1.076928,-5.41829 1.110582,-2.08655 3.02886,-3.06252 1.918278,-0.97596 4.341366,-0.97596 1.34616,0 2.625012,0.30288 1.312506,0.26924 2.120202,0.67308 l -0.908658,2.45675 q -0.807696,-0.30289 -1.884624,-0.57212 -1.076928,-0.26923 -2.01924,-0.26923 -5.317332,0 -5.317332,6.83176 0,3.26444 1.278852,5.01444 1.312506,1.71636 3.87021,1.71636 1.447122,0 2.591358,-0.30289 1.144236,-0.30288 2.086548,-0.74039 v 2.62502 q -0.908658,0.47115 -2.01924,0.70673 -1.076928,0.26923 -2.625012,0.26923 z"
         style="-inkscape-font-specification:'sans-serif, Normal';fill:#ffffff"
         id="path3924" />
      <path
         d="m 77.181062,202.35729 q 0.67308,0 1.379814,-0.10096 0.706734,-0.10096 1.144236,-0.26923 v 2.25482 q -0.471156,0.23558 -1.34616,0.37019 -0.875004,0.16827 -1.6827,0.16827 -1.413468,0 -2.625012,-0.47115 -1.17789,-0.50481 -1.918278,-1.71636 -0.740388,-1.21154 -0.740388,-3.39905 V 188.69377 H 68.83487 v -1.41347 l 2.591358,-1.17789 1.17789,-3.83655 h 1.750008 v 4.13944 h 5.21637 v 2.28847 h -5.21637 v 10.43274 q 0,1.64905 0.774042,2.45674 0.807696,0.77404 2.052894,0.77404 z"
         style="-inkscape-font-specification:'sans-serif, Normal';fill:#ffffff"
         id="path3926" />
      <path
         d="m 84.820523,179.64084 q 0.67308,0 1.17789,0.47116 0.538464,0.4375 0.538464,1.41347 0,0.97596 -0.538464,1.44712 -0.50481,0.4375 -1.17789,0.4375 -0.740388,0 -1.245198,-0.4375 -0.50481,-0.47116 -0.50481,-1.44712 0,-0.97597 0.50481,-1.41347 0.50481,-0.47116 1.245198,-0.47116 z m 1.447122,6.76446 v 18.03854 H 83.306093 V 186.4053 Z"
         style="-inkscape-font-specification:'sans-serif, Normal';fill:#ffffff"
         id="path3928" />
      <path
         d="m 107.67157,195.39092 q 0,4.47598 -2.28848,6.93272 -2.25481,2.45674 -6.125024,2.45674 -2.389434,0 -4.274058,-1.07693 -1.85097,-1.11058 -2.927898,-3.19713 -1.076928,-2.1202 -1.076928,-5.1154 0,-4.47599 2.221164,-6.89907 2.254818,-2.42309 6.158682,-2.42309 2.423092,0 4.307712,1.11058 1.88462,1.07693 2.9279,3.16348 1.07693,2.05289 1.07693,5.0481 z m -13.629874,0 q 0,3.19713 1.245198,5.08175 1.278852,1.85097 4.03848,1.85097 2.725976,0 4.004826,-1.85097 1.27885,-1.88462 1.27885,-5.08175 0,-3.19713 -1.27885,-5.01445 -1.27885,-1.81732 -4.03848,-1.81732 -2.759628,0 -4.004826,1.81732 -1.245198,1.81732 -1.245198,5.01445 z"
         style="-inkscape-font-specification:'sans-serif, Normal';fill:#ffffff"
         id="path3930" />
      <path
         d="m 121.03219,186.06876 q 3.23078,0 4.87983,1.58174 1.64905,1.58173 1.64905,5.0481 v 11.74524 h -2.9279 v -11.54332 q 0,-4.34137 -4.03848,-4.34137 -2.99521,0 -4.13944,1.6827 -1.14424,1.6827 -1.14424,4.84618 v 9.35581 h -2.96155 V 186.4053 h 2.38943 l 0.4375,2.45674 h 0.16827 q 0.87501,-1.41347 2.42309,-2.08655 1.54809,-0.70673 3.26444,-0.70673 z"
         style="-inkscape-font-specification:'sans-serif, Normal';fill:#ffffff"
         id="path3932" />
      <path
         d="m 42.954933,228.16991 q 3.298092,0 4.87983,1.44712 1.581738,1.44713 1.581738,4.6106 v 12.28371 h -2.153856 l -0.572118,-2.5577 h -0.134616 q -1.17789,1.48077 -2.490396,2.18751 -1.312506,0.70673 -3.567324,0.70673 -2.456742,0 -4.072134,-1.27885 -1.615392,-1.31251 -1.615392,-4.07213 0,-2.69232 2.120202,-4.13945 2.120202,-1.48077 6.528876,-1.61539 l 3.062514,-0.10096 v -1.07693 q 0,-2.25482 -0.975966,-3.12982 -0.975966,-0.875 -2.759628,-0.875 -1.413468,0 -2.69232,0.4375 -1.278852,0.40385 -2.389434,0.94231 L 36.796251,229.718 q 1.17789,-0.63943 2.793282,-1.07693 1.615392,-0.47116 3.3654,-0.47116 z m 3.53367,9.52408 -2.658666,0.10097 q -3.3654,0.13461 -4.677906,1.07692 -1.278852,0.94232 -1.278852,2.65867 0,1.51443 0.908658,2.22116 0.942312,0.70674 2.389434,0.70674 2.254818,0 3.769248,-1.2452 1.548084,-1.27885 1.548084,-3.90386 z"
         style="-inkscape-font-specification:'sans-serif, Normal';fill:#ffffff"
         id="path3934" />
      <path
         d="m 61.397352,228.13626 q 1.783662,0 3.19713,0.67308 1.447122,0.67308 2.456742,2.05289 h 0.16827 l 0.403848,-2.38943 h 2.355779 v 18.34143 q 0,3.87021 -1.985585,5.82214 -1.951932,1.95193 -6.091374,1.95193 -3.971172,0 -6.495222,-1.14424 v -2.72597 q 2.658666,1.41347 6.663492,1.41347 2.322126,0 3.634632,-1.37981 1.34616,-1.34616 1.34616,-3.70194 v -0.70674 q 0,-0.40385 0.03365,-1.14423 0.03365,-0.77405 0.06731,-1.07693 H 67.01757 q -1.817316,2.72597 -5.586564,2.72597 -3.500016,0 -5.485602,-2.45674 -1.951932,-2.45674 -1.951932,-6.86542 0,-4.30771 1.951932,-6.83176 1.985586,-2.5577 5.451948,-2.5577 z m 0.403848,2.49039 q -2.254818,0 -3.500016,1.81732 -1.245198,1.78366 -1.245198,5.11541 0,3.33174 1.211544,5.11541 1.211544,1.75 3.600978,1.75 2.725974,0 3.971172,-1.44712 1.245198,-1.48077 1.245198,-4.74521 v -0.70674 q 0,-3.66828 -1.278852,-5.28367 -1.278852,-1.6154 -4.004826,-1.6154 z"
         style="-inkscape-font-specification:'sans-serif, Normal';fill:#ffffff"
         id="path3936" />
      <path
         d="m 82.532058,228.16991 q 3.298092,0 4.87983,1.44712 1.581738,1.44713 1.581738,4.6106 v 12.28371 H 86.83977 l -0.572118,-2.5577 h -0.134616 q -1.17789,1.48077 -2.490396,2.18751 -1.312506,0.70673 -3.567324,0.70673 -2.456742,0 -4.072134,-1.27885 -1.615392,-1.31251 -1.615392,-4.07213 0,-2.69232 2.120202,-4.13945 2.120202,-1.48077 6.528876,-1.61539 l 3.062514,-0.10096 v -1.07693 q 0,-2.25482 -0.975966,-3.12982 -0.975966,-0.875 -2.759628,-0.875 -1.413468,0 -2.69232,0.4375 -1.278852,0.40385 -2.389434,0.94231 L 76.373376,229.718 q 1.17789,-0.63943 2.793282,-1.07693 1.615392,-0.47116 3.3654,-0.47116 z m 3.53367,9.52408 -2.658666,0.10097 q -3.3654,0.13461 -4.677906,1.07692 -1.278852,0.94232 -1.278852,2.65867 0,1.51443 0.908658,2.22116 0.942312,0.70674 2.389434,0.70674 2.254818,0 3.769248,-1.2452 1.548084,-1.27885 1.548084,-3.90386 z"
         style="-inkscape-font-specification:'sans-serif, Normal';fill:#ffffff"
         id="path3938" />
      <path
         d="m 96.094647,221.70834 q 0.67308,0 1.17789,0.47116 0.538464,0.4375 0.538464,1.41347 0,0.97596 -0.538464,1.44712 -0.50481,0.4375 -1.17789,0.4375 -0.740388,0 -1.245198,-0.4375 -0.50481,-0.47116 -0.50481,-1.44712 0,-0.97597 0.50481,-1.41347 0.50481,-0.47116 1.245198,-0.47116 z m 1.447122,6.76446 v 18.03854 H 94.580217 V 228.4728 Z"
         style="-inkscape-font-specification:'sans-serif, Normal';fill:#ffffff"
         id="path3940" />
      <path
         d="m 111.94566,228.13626 q 3.23078,0 4.87983,1.58174 1.64904,1.58173 1.64904,5.0481 v 11.74524 h -2.92789 v -11.54332 q 0,-4.34137 -4.03848,-4.34137 -2.99521,0 -4.13945,1.6827 -1.14423,1.6827 -1.14423,4.84618 v 9.35581 h -2.96155 V 228.4728 h 2.38943 l 0.4375,2.45674 h 0.16827 q 0.87501,-1.41347 2.42309,-2.08655 1.54808,-0.70673 3.26444,-0.70673 z"
         style="-inkscape-font-specification:'sans-serif, Normal';fill:#ffffff"
         id="path3942" />
      <path
         d="m 135.80634,241.53055 q 0,2.62501 -1.95193,3.97117 -1.95193,1.34616 -5.25002,1.34616 -1.88463,0 -3.26444,-0.30288 -1.34616,-0.30289 -2.38943,-0.84135 v -2.69232 q 1.07692,0.53846 2.59135,1.00962 1.54809,0.4375 3.12983,0.4375 2.25481,0 3.26443,-0.70674 1.00962,-0.74038 1.00962,-1.95193 0,-0.67308 -0.37019,-1.21154 -0.37019,-0.53847 -1.34616,-1.07693 -0.94231,-0.53846 -2.72597,-1.21154 -1.75001,-0.67308 -2.99521,-1.34616 -1.2452,-0.67308 -1.91828,-1.6154 -0.67308,-0.94231 -0.67308,-2.42308 0,-2.28848 1.85097,-3.53367 1.88463,-1.2452 4.91349,-1.2452 1.64904,0 3.06251,0.33654 1.44712,0.33654 2.69232,0.875 l -1.00962,2.35578 q -1.14424,-0.47115 -2.38943,-0.80769 -1.2452,-0.33654 -2.55771,-0.33654 -1.81731,0 -2.79328,0.60577 -0.94231,0.57212 -0.94231,1.58174 0,0.77404 0.4375,1.27885 0.4375,0.50481 1.44712,1.00962 1.04328,0.50481 2.75963,1.14423 1.71635,0.63943 2.9279,1.31251 1.21154,0.67308 1.85097,1.64905 0.63942,0.94231 0.63942,2.38943 z"
         style="-inkscape-font-specification:'sans-serif, Normal';fill:#ffffff"
         id="path3944" />
      <path
         d="m 146.20543,244.42479 q 0.67308,0 1.37982,-0.10096 0.70673,-0.10096 1.14423,-0.26923 v 2.25482 q -0.47115,0.23558 -1.34616,0.37019 -0.875,0.16827 -1.6827,0.16827 -1.41346,0 -2.62501,-0.47115 -1.17789,-0.50481 -1.91828,-1.71636 -0.74038,-1.21154 -0.74038,-3.39905 v -10.50005 h -2.55771 v -1.41347 l 2.59136,-1.17789 1.17789,-3.83655 h 1.75001 v 4.13944 h 5.21637 v 2.28847 h -5.21637 v 10.43274 q 0,1.64905 0.77404,2.45674 0.8077,0.77404 2.05289,0.77404 z"
         style="-inkscape-font-specification:'sans-serif, Normal';fill:#ffffff"
         id="path3946" />
      <path
         d="m 47.868417,283.59805 q 0,2.62501 -1.951932,3.97117 -1.951932,1.34616 -5.250024,1.34616 -1.884624,0 -3.264438,-0.30289 -1.34616,-0.30288 -2.389434,-0.84135 v -2.69232 q 1.076928,0.53847 2.591358,1.00962 1.548084,0.43751 3.129822,0.43751 2.254818,0 3.264438,-0.70674 1.00962,-0.74039 1.00962,-1.95193 0,-0.67308 -0.370194,-1.21154 -0.370194,-0.53847 -1.34616,-1.07693 -0.942312,-0.53847 -2.725974,-1.21155 -1.750008,-0.67308 -2.995206,-1.34616 -1.245198,-0.67308 -1.918278,-1.61539 -0.67308,-0.94231 -0.67308,-2.42309 0,-2.28847 1.85097,-3.53367 1.884624,-1.24519 4.913484,-1.24519 1.649046,0 3.062514,0.33654 1.447122,0.33654 2.69232,0.875 l -1.00962,2.35578 q -1.144236,-0.47116 -2.389434,-0.8077 -1.245198,-0.33654 -2.557704,-0.33654 -1.817316,0 -2.793282,0.60578 -0.942312,0.57211 -0.942312,1.58173 0,0.77405 0.437502,1.27886 0.437502,0.50481 1.447122,1.00962 1.043274,0.50481 2.759628,1.14423 1.716354,0.63943 2.927898,1.31251 1.211544,0.67308 1.85097,1.64904 0.639426,0.94232 0.639426,2.38944 z"
         style="-inkscape-font-specification:'sans-serif, Normal';fill:#ffffff"
         id="path3948" />
      <path
         d="m 58.267505,286.49229 q 0.67308,0 1.379814,-0.10096 0.706734,-0.10096 1.144236,-0.26923 v 2.25482 q -0.471156,0.23557 -1.34616,0.37019 -0.875004,0.16827 -1.6827,0.16827 -1.413468,0 -2.625012,-0.47116 -1.17789,-0.50481 -1.918278,-1.71635 -0.740388,-1.21154 -0.740388,-3.39905 v -10.50005 h -2.557704 v -1.41347 l 2.591358,-1.17789 1.17789,-3.83656 h 1.750008 v 4.13945 h 5.21637 v 2.28847 h -5.21637 v 10.43274 q 0,1.64904 0.774042,2.45674 0.807696,0.77404 2.052894,0.77404 z"
         style="-inkscape-font-specification:'sans-serif, Normal';fill:#ffffff"
         id="path3950" />
      <path
         d="m 79.469526,270.5403 v 18.03854 h -2.423088 l -0.437502,-2.38943 H 76.47432 q -0.875004,1.41346 -2.423088,2.08654 -1.548084,0.63943 -3.298092,0.63943 -3.264438,0 -4.913484,-1.54808 -1.649046,-1.58174 -1.649046,-5.01445 V 270.5403 h 2.995206 v 11.61063 q 0,4.30771 4.004826,4.30771 2.995206,0 4.139442,-1.6827 1.17789,-1.6827 1.17789,-4.84618 v -9.38946 z"
         style="-inkscape-font-specification:'sans-serif, Normal';fill:#ffffff"
         id="path3952" />
      <path
         d="m 93.873438,270.20376 q 3.230784,0 4.87983,1.58173 1.649042,1.58174 1.649042,5.0481 v 11.74525 h -2.927894 v -11.54332 q 0,-4.34137 -4.03848,-4.34137 -2.995206,0 -4.139442,1.6827 -1.144236,1.6827 -1.144236,4.84618 v 9.35581 H 85.190706 V 270.5403 h 2.389434 l 0.437502,2.45674 h 0.16827 q 0.875004,-1.41347 2.423088,-2.08655 1.548084,-0.70673 3.264438,-0.70673 z"
         style="-inkscape-font-specification:'sans-serif, Normal';fill:#ffffff"
         id="path3954" />
      <path
         d="m 112.01294,286.49229 q 0.67308,0 1.37982,-0.10096 0.70673,-0.10096 1.14423,-0.26923 v 2.25482 q -0.47115,0.23557 -1.34616,0.37019 -0.875,0.16827 -1.6827,0.16827 -1.41346,0 -2.62501,-0.47116 -1.17789,-0.50481 -1.91828,-1.71635 -0.74038,-1.21154 -0.74038,-3.39905 v -10.50005 h -2.55771 v -1.41347 l 2.59136,-1.17789 1.17789,-3.83656 h 1.75001 v 4.13945 h 5.21637 v 2.28847 h -5.21637 v 10.43274 q 0,1.64904 0.77404,2.45674 0.8077,0.77404 2.05289,0.77404 z"
         style="-inkscape-font-specification:'sans-serif, Normal';fill:#ffffff"
         id="path3956" />
      <path
         d="m 119.6524,263.77584 q 0.67308,0 1.17789,0.47116 0.53847,0.4375 0.53847,1.41347 0,0.97596 -0.53847,1.44712 -0.50481,0.4375 -1.17789,0.4375 -0.74039,0 -1.2452,-0.4375 -0.50481,-0.47116 -0.50481,-1.44712 0,-0.97597 0.50481,-1.41347 0.50481,-0.47116 1.2452,-0.47116 z m 1.44712,6.76446 v 18.03854 h -2.96155 V 270.5403 Z"
         style="-inkscape-font-specification:'sans-serif, Normal';fill:#ffffff"
         id="path3958" />
      <path
         d="m 135.50342,270.20376 q 3.23078,0 4.87983,1.58173 1.64905,1.58174 1.64905,5.0481 v 11.74525 h -2.9279 v -11.54332 q 0,-4.34137 -4.03848,-4.34137 -2.99521,0 -4.13944,1.6827 -1.14424,1.6827 -1.14424,4.84618 v 9.35581 h -2.96155 V 270.5403 h 2.38943 l 0.4375,2.45674 h 0.16827 q 0.87501,-1.41347 2.42309,-2.08655 1.54809,-0.70673 3.26444,-0.70673 z"
         style="-inkscape-font-specification:'sans-serif, Normal';fill:#ffffff"
         id="path3960" />
      <path
         d="m 154.01312,270.20376 q 1.78366,0 3.19713,0.67308 1.44712,0.67308 2.45674,2.05289 h 0.16827 l 0.40385,-2.38943 h 2.35578 v 18.34143 q 0,3.87021 -1.98559,5.82214 -1.95193,1.95193 -6.09137,1.95193 -3.97117,0 -6.49522,-1.14424 v -2.72597 q 2.65866,1.41347 6.66349,1.41347 2.32213,0 3.63463,-1.37982 1.34616,-1.34616 1.34616,-3.70194 v -0.70673 q 0,-0.40385 0.0337,-1.14424 0.0336,-0.77404 0.0673,-1.07692 h -0.13461 q -1.81732,2.72597 -5.58657,2.72597 -3.50001,0 -5.4856,-2.45674 -1.95193,-2.45674 -1.95193,-6.86542 0,-4.30771 1.95193,-6.83176 1.98559,-2.5577 5.45195,-2.5577 z m 0.40385,2.49039 q -2.25482,0 -3.50002,1.81732 -1.2452,1.78366 -1.2452,5.11541 0,3.33174 1.21155,5.1154 1.21154,1.75001 3.60098,1.75001 2.72597,0 3.97117,-1.44712 1.2452,-1.48078 1.2452,-4.74521 v -0.70674 q 0,-3.66828 -1.27886,-5.28368 -1.27885,-1.61539 -4.00482,-1.61539 z"
         style="-inkscape-font-specification:'sans-serif, Normal';fill:#ffffff"
         id="path3962" />
    </g>
    <text
       xml:space="preserve"
       style="font-size:42.6667px;line-height:1.25;font-family:sans-serif"
       x="265.7627"
       y="-186.21468"
       id="text1680"><tspan
         sodipodi:role="line"
         id="tspan1678"
         x="265.7627"
         y="-186.21468" /></text>
  </g>
</svg>
